<svg width="262" height="202" viewBox="0 0 262 202" fill="none" xmlns="http://www.w3.org/2000/svg">
<path d="M11.763 85.5454C11.2052 85.7561 10.5946 85.7824 10.0208 85.6204C9.44694 85.4584 8.94023 85.1166 8.57502 84.6453L6.237 81.6444C5.94048 81.2816 5.55621 81.0006 5.12061 80.828C4.685 80.6555 4.2125 80.5971 3.74799 80.6583V83.6063C3.74799 84.6693 4.476 84.8514 5.448 84.9734C5.554 84.9884 5.47802 85.4893 5.35602 85.4893H0.755985C0.633985 85.4893 0.543005 84.9894 0.664005 84.9734C1.43901 84.8664 1.92401 84.5623 1.92401 83.6063V76.8374C1.92401 75.8374 1.39301 75.5463 0.664005 75.3493C0.543005 75.3193 0.618985 74.8183 0.755985 74.8333C1.33528 74.8989 1.91801 74.9293 2.50098 74.9243C3.62398 74.9243 4.671 74.8333 5.401 74.8333C7.693 74.8333 9.22602 75.7743 9.22602 77.6413C9.22312 78.3565 8.93773 79.0416 8.43201 79.5473C7.92629 80.053 7.2412 80.3384 6.526 80.3413V80.4184C7.133 80.4184 7.57401 80.6764 8.24201 81.5114L10.503 84.3493C10.6409 84.5639 10.8262 84.7439 11.0446 84.8755C11.2631 85.0071 11.5089 85.0868 11.763 85.1084C11.884 85.1064 11.854 85.5154 11.763 85.5454ZM7.31598 78.0454C7.34596 77.7228 7.30523 77.3976 7.19666 77.0924C7.08808 76.7872 6.91427 76.5094 6.68732 76.2782C6.46037 76.0471 6.18573 75.8682 5.88257 75.7541C5.57941 75.6399 5.25505 75.5933 4.93201 75.6173C4.03201 75.6173 3.74903 75.9813 3.74903 76.8313V79.9574H4.18903C6.45003 79.9594 7.31598 79.5653 7.31598 78.0473V78.0454Z" fill="white"/>
<path d="M14.2115 84.9695C15.0925 84.7415 15.7755 84.6046 15.7755 83.4806V76.7425C15.7755 75.7705 15.1535 75.5126 14.5005 75.3426C14.3785 75.3126 14.4545 74.8115 14.5765 74.8265C15.6845 74.9475 17.5965 74.9175 18.5225 74.9175C19.9035 74.9175 20.9055 74.8565 22.1505 74.8265C22.5145 74.8265 22.5145 75.0695 22.4385 75.4185L22.0745 76.8606C22.0285 77.0736 21.6495 77.0736 21.5885 76.8606C21.3605 76.1176 20.9055 75.6916 19.0085 75.6916C17.9455 75.6916 17.5965 75.9645 17.5965 76.7545V79.2285C17.5965 79.6285 17.7965 79.6985 18.0965 79.6985H18.4305C19.4515 79.8158 20.4815 79.5747 21.3445 79.0165C21.4965 78.8785 21.8305 78.9095 21.6935 79.2165L20.8285 81.1295C20.7075 81.4025 20.4795 81.3726 20.3125 81.1446C20.0511 80.8889 19.7358 80.6949 19.3898 80.5767C19.0437 80.4585 18.6757 80.4192 18.3125 80.4615H18.0995C17.7995 80.4615 17.5995 80.5375 17.5995 80.9315V83.4815C17.5995 84.3475 17.9635 84.6665 19.2235 84.6665C21.5155 84.6665 22.4235 83.6185 22.7905 83.0425C22.8965 82.8745 23.3065 82.9515 23.3065 83.2085C23.3065 83.9825 22.6535 85.5165 21.6975 85.5165C20.8475 85.4705 20.0135 85.4245 18.7385 85.4245C17.3385 85.4245 15.6875 85.3795 14.3065 85.5165C14.1515 85.5305 14.0905 84.9995 14.2115 84.9695Z" fill="white"/>
<path d="M29.3643 81.4163V83.6063C29.3643 84.6693 30.0923 84.8514 31.0643 84.9734C31.1703 84.9884 31.0943 85.4893 30.9733 85.4893H26.3732C26.2522 85.4893 26.1612 84.9894 26.2822 84.9734C27.0572 84.8664 27.5422 84.5623 27.5422 83.6063V76.8374C27.5422 75.8374 27.0112 75.5463 26.2822 75.3493C26.1612 75.3193 26.2372 74.8183 26.3732 74.8333C26.9529 74.8989 27.536 74.9292 28.1193 74.9243C29.2423 74.9243 30.1832 74.8333 30.9572 74.8333C33.3102 74.8333 35.2573 75.6983 35.2573 78.0813C35.2533 80.7793 32.7183 81.9173 29.3643 81.4163ZM29.3643 76.8333V80.6734C31.9443 81.0374 33.2952 80.4153 33.2952 78.4273C33.3283 78.0581 33.2814 77.6861 33.1578 77.3366C33.0343 76.9871 32.8369 76.6682 32.5791 76.4018C32.3213 76.1354 32.0092 75.9276 31.6639 75.7926C31.3187 75.6576 30.9484 75.5985 30.5782 75.6193C29.6222 75.6193 29.3643 75.9523 29.3643 76.8333Z" fill="white"/>
<path d="M39.5378 81.5064V76.7404C39.5621 76.567 39.5482 76.3904 39.497 76.2229C39.4458 76.0555 39.3586 75.9012 39.2415 75.7711C39.1244 75.6409 38.9802 75.538 38.8191 75.4694C38.6579 75.4009 38.4837 75.3685 38.3087 75.3744C38.1867 75.3584 38.2778 74.8574 38.3988 74.8574H42.5428C42.6638 74.8574 42.7558 75.3574 42.6338 75.3744C42.46 75.3707 42.2876 75.4047 42.1283 75.4742C41.969 75.5438 41.8267 75.6471 41.7112 75.777C41.5958 75.9069 41.51 76.0603 41.4596 76.2266C41.4093 76.393 41.3957 76.5682 41.4198 76.7404V81.5824C41.4198 83.7064 42.6488 84.6934 44.2578 84.6934C44.6673 84.7204 45.0778 84.6576 45.4605 84.509C45.8431 84.3605 46.1885 84.1299 46.4726 83.8336C46.7566 83.5373 46.9723 83.1824 47.1045 82.7938C47.2367 82.4052 47.2822 81.9925 47.2378 81.5844V76.7424C47.2378 75.7554 46.6758 75.4814 45.9378 75.3764C45.8318 75.3604 45.9078 74.8594 46.0288 74.8594H49.4378C49.5448 74.8594 49.6378 75.3594 49.5138 75.3764C49.34 75.3727 49.1676 75.4068 49.0083 75.4763C48.849 75.5458 48.7067 75.649 48.5912 75.7789C48.4758 75.9088 48.3899 76.0623 48.3396 76.2286C48.2892 76.395 48.2757 76.5703 48.2998 76.7424V81.4924C48.3466 82.0591 48.2697 82.6292 48.0744 83.1633C47.8791 83.6973 47.5701 84.1825 47.1687 84.5853C46.7674 84.9881 46.2832 85.2989 45.7498 85.4961C45.2165 85.6933 44.6466 85.7722 44.0797 85.7274C41.9377 85.7274 39.5378 84.5884 39.5378 81.5064ZM43.9998 71.0784C44.2738 70.6784 45.5487 71.8524 45.1837 72.1254L43.1958 73.6254C42.9958 73.7764 42.4667 73.2914 42.6187 73.0794L43.9998 71.0784Z" fill="white"/>
<path d="M61.6734 82.4194C61.6734 84.3004 59.9574 85.5194 57.4234 85.5194C56.6944 85.5194 55.8444 85.4274 54.7234 85.4274C53.928 85.4143 53.1325 85.4451 52.3404 85.5194C52.2044 85.5344 52.1274 85.0034 52.2494 84.9734C53.1294 84.7454 53.8124 84.6084 53.8124 83.4844V76.7464C53.8124 75.7744 53.1904 75.5164 52.5374 75.3464C52.4164 75.3164 52.4924 74.8154 52.6134 74.8304C53.2235 74.8954 53.8369 74.9258 54.4504 74.9214C55.6644 74.9214 56.5594 74.8304 57.2274 74.8304C59.1854 74.8304 60.7944 75.6504 60.8094 77.3204C60.8186 77.8681 60.6305 78.4009 60.2795 78.8215C59.9285 79.2421 59.4379 79.5225 58.8974 79.6114V79.7024C59.2597 79.6922 59.6205 79.7551 59.958 79.8872C60.2955 80.0194 60.603 80.2182 60.8621 80.4718C61.1211 80.7253 61.3265 81.0284 61.4659 81.3631C61.6053 81.6977 61.6758 82.0569 61.6734 82.4194ZM55.6324 76.7424V79.4424H57.1954C57.4287 79.474 57.6662 79.4516 57.8895 79.3768C58.1127 79.302 58.3158 79.1769 58.483 79.0111C58.6502 78.8454 58.777 78.6434 58.8538 78.4208C58.9305 78.1982 58.955 77.961 58.9254 77.7274C58.943 77.4366 58.8969 77.1456 58.7903 76.8745C58.6837 76.6034 58.5192 76.3589 58.3082 76.158C58.0973 75.9571 57.845 75.8048 57.569 75.7116C57.293 75.6184 57 75.5866 56.7104 75.6184C55.9054 75.6194 55.6374 75.8924 55.6374 76.7424H55.6324ZM59.7154 82.7524C59.7414 82.4135 59.6941 82.073 59.5771 81.7539C59.46 81.4348 59.2758 81.1446 59.0369 80.9028C58.798 80.661 58.51 80.4734 58.1923 80.3526C57.8746 80.2317 57.5346 80.1805 57.1954 80.2024H55.6374V83.4804C55.6374 84.3154 56.0624 84.7264 57.3824 84.7264C58.7134 84.7264 59.7154 84.3304 59.7154 82.7524Z" fill="white"/>
<path d="M64.5769 84.9694C65.4579 84.7414 66.1409 84.6044 66.1409 83.4804V76.7424C66.1409 75.6794 65.5189 75.4664 64.8659 75.3764C64.7449 75.3604 64.8359 74.8594 64.9419 74.8594H69.1309C69.2369 74.8594 69.3129 75.3594 69.2069 75.3764C69.0306 75.3681 68.8546 75.3987 68.6915 75.4662C68.5284 75.5337 68.3822 75.6363 68.2633 75.7667C68.1444 75.8972 68.0557 76.0522 68.0036 76.2209C67.9515 76.3895 67.9373 76.5676 67.9619 76.7424V83.4804C67.9619 84.3464 68.3269 84.6654 69.5869 84.6654C71.8789 84.6654 72.7869 83.6174 73.1529 83.0414C73.2599 82.8734 73.6689 82.9504 73.6689 83.2074C73.6689 83.9814 73.0169 85.5154 72.0599 85.5154C71.2099 85.4694 70.3758 85.4234 69.1008 85.4234C67.7008 85.4234 66.0499 85.3784 64.6689 85.5154C64.5169 85.5304 64.4559 84.9994 64.5769 84.9694Z" fill="white"/>
<path d="M76.3439 84.9694C77.1179 84.8624 77.6039 84.5584 77.6039 83.6024V76.7424C77.6039 75.7854 77.1179 75.4814 76.3439 75.3764C76.2219 75.3604 76.3129 74.8594 76.4339 74.8594H80.5939C80.7149 74.8594 80.8059 75.3594 80.6839 75.3764C80.0319 75.4664 79.4249 75.6764 79.4249 76.7424V83.6024C79.4249 84.6654 80.0319 84.8774 80.6839 84.9694C80.8059 84.9844 80.7149 85.4854 80.5939 85.4854H76.4369C76.3129 85.4854 76.2219 84.9844 76.3439 84.9694Z" fill="white"/>
<path d="M83.8908 80.3702C83.8544 79.5959 83.9819 78.8227 84.2649 78.1011C84.5479 77.3795 84.9801 76.7258 85.5331 76.1827C86.0862 75.6397 86.7477 75.2196 87.4743 74.9498C88.201 74.68 88.9764 74.5666 89.7499 74.6172C91.5099 74.6172 93.0278 75.1642 92.8498 75.6952L92.6498 76.2872C92.1028 77.9112 91.5109 75.8322 88.8099 75.8322C86.6389 75.8322 85.5758 77.2432 85.5758 79.4322C85.5425 80.0628 85.6394 80.6935 85.8604 81.285C86.0814 81.8765 86.4219 82.4162 86.8605 82.8704C87.2992 83.3247 87.8266 83.6837 88.4101 83.9252C88.9935 84.1667 89.6205 84.2855 90.2518 84.2742C91.1066 84.2057 91.9383 83.963 92.6958 83.5612C92.8168 83.4842 93.1358 83.8342 93.0448 83.9702C92.2035 84.8741 91.099 85.4903 89.8879 85.7312C87.3379 85.7282 83.8908 84.2412 83.8908 80.3702Z" fill="white"/>
<path d="M106.905 85.4858H102.898C102.698 85.4858 102.685 84.9997 102.853 84.9697C103.414 84.8627 104.021 84.6697 103.46 83.3597L103.293 82.9808C103.141 82.6158 102.883 82.5807 102.428 82.5807H99.3283C98.8733 82.5807 98.6153 82.6108 98.4633 82.9808L98.3113 83.3597C97.7803 84.6657 98.3573 84.8597 99.0853 84.9697C99.2853 84.9997 99.2373 85.4858 99.0403 85.4858H95.7613C95.5793 85.4858 95.5333 84.9997 95.7153 84.9697C96.3383 84.8627 96.7023 84.6507 97.2643 83.3597L99.8293 77.4708C100.261 76.6887 100.524 75.8253 100.603 74.9357C100.946 74.7619 101.328 74.6835 101.711 74.7087L105.411 83.3447C105.957 84.6357 106.321 84.8777 106.928 84.9697C107.148 84.9997 107.087 85.4858 106.905 85.4858ZM102.67 81.4927L100.894 77.2427L99.1033 81.4927C99.0123 81.7057 99.2403 81.7358 99.4533 81.7358H102.321C102.537 81.7358 102.761 81.7067 102.67 81.4927Z" fill="white"/>
<path d="M114.259 84.9695C115.139 84.7415 115.822 84.6046 115.822 83.4806V76.7425C115.822 75.7705 115.2 75.5126 114.547 75.3426C114.426 75.3126 114.502 74.8115 114.623 74.8265C115.254 74.8952 115.888 74.9256 116.523 74.9175C117.706 74.9175 118.769 74.8265 119.543 74.8265C123.216 74.8265 125.204 77.0126 125.204 79.9416C125.231 80.6893 125.101 81.4345 124.824 82.1295C124.547 82.8246 124.128 83.4543 123.594 83.9784C123.06 84.5026 122.423 84.9097 121.722 85.1738C121.022 85.4379 120.275 85.5533 119.528 85.5125C118.799 85.5125 117.858 85.4206 116.735 85.4206C115.939 85.4078 115.144 85.4385 114.352 85.5125C114.198 85.5305 114.138 84.9995 114.259 84.9695ZM123.381 80.8095C123.381 77.9095 121.802 75.6345 119.071 75.6345C117.993 75.6345 117.644 75.9675 117.644 76.7425V83.4806C117.644 84.3006 118.205 84.7105 119.678 84.7105C122.152 84.7065 123.381 83.3745 123.381 80.8065V80.8095Z" fill="white"/>
<path d="M128.5 80.233C128.472 79.4969 128.595 78.7628 128.86 78.0757C129.126 77.3887 129.529 76.763 130.045 76.2372C130.56 75.7113 131.178 75.2963 131.86 75.0175C132.542 74.7388 133.274 74.6022 134.01 74.616C134.736 74.5927 135.459 74.7185 136.134 74.9856C136.81 75.2527 137.423 75.6556 137.937 76.1692C138.45 76.6828 138.853 77.2963 139.12 77.9717C139.387 78.6471 139.513 79.3701 139.489 80.096C139.52 80.8335 139.399 81.5695 139.135 82.2586C138.871 82.9477 138.468 83.5754 137.952 84.103C137.435 84.6305 136.817 85.0468 136.133 85.3261C135.45 85.6054 134.717 85.7418 133.979 85.727C133.253 85.7474 132.53 85.6191 131.855 85.35C131.18 85.081 130.567 84.6767 130.054 84.1622C129.541 83.6477 129.138 83.0338 128.871 82.3582C128.604 81.6825 128.478 80.9593 128.5 80.233ZM137.683 80.946C137.683 77.88 135.604 75.646 133.418 75.646C132.082 75.646 130.318 76.526 130.318 79.38C130.318 82.48 132.397 84.692 134.567 84.692C135.907 84.695 137.683 83.815 137.683 80.946Z" fill="white"/>
<path d="M156.009 85.4854H152.047C151.941 85.4854 151.865 84.9853 151.956 84.9693C152.121 84.9626 152.282 84.92 152.429 84.8445C152.576 84.769 152.704 84.6626 152.805 84.5324C152.906 84.4023 152.978 84.2518 153.015 84.0911C153.052 83.9305 153.053 83.7637 153.019 83.6024L152.731 78.5023L150.271 83.5124C150.018 84.0118 149.815 84.535 149.664 85.0744C149.634 85.2574 149.315 85.3484 149.072 85.3484C148.976 85.356 148.879 85.3339 148.795 85.2849C148.711 85.236 148.643 85.1625 148.602 85.0744L145.096 78.4273L144.868 83.6024C144.822 84.6654 145.445 84.9073 145.931 84.9693C146.052 84.9843 145.961 85.4854 145.854 85.4854H142.712C142.591 85.4854 142.5 84.9853 142.621 84.9693C143.274 84.8923 143.821 84.6694 143.881 83.6024L144.367 74.8903C144.382 74.6313 144.959 74.6163 145.111 74.8903L149.511 83.1164L153.595 74.8903C153.731 74.6163 154.338 74.6313 154.353 74.8903L154.839 83.6024C154.9 84.6654 155.446 84.8923 156.084 84.9693C156.206 84.9843 156.115 85.4854 156.009 85.4854Z" fill="white"/>
<path d="M159.126 84.9694C159.9 84.8624 160.386 84.5584 160.386 83.6024V76.7424C160.386 75.7854 159.9 75.4814 159.126 75.3764C159.005 75.3604 159.096 74.8594 159.217 74.8594H163.376C163.498 74.8594 163.588 75.3594 163.467 75.3764C162.815 75.4664 162.208 75.6764 162.208 76.7424V83.6024C162.208 84.6654 162.815 84.8774 163.467 84.9694C163.588 84.9844 163.498 85.4854 163.376 85.4854H159.217C159.096 85.4854 159.005 84.9844 159.126 84.9694Z" fill="white"/>
<path d="M175.948 85.3484L168.722 77.7885V83.5574C168.722 84.5884 169.33 84.7574 170.195 84.9694C170.316 84.9994 170.256 85.4855 170.104 85.4855H166.504C166.382 85.4855 166.291 85.0144 166.428 84.9694C167.065 84.7564 167.672 84.6354 167.672 83.5574V77.6674C167.748 76.9146 167.549 76.1597 167.111 75.5424C166.974 75.3604 166.838 75.2424 166.838 75.1934C166.834 75.1094 166.863 75.0273 166.919 74.9647C166.975 74.9022 167.054 74.8643 167.138 74.8594H168.261C168.328 74.8505 168.397 74.8584 168.461 74.8823C168.524 74.9062 168.581 74.9454 168.626 74.9965L175.699 82.4794V76.7725C175.699 75.6945 175.016 75.5724 174.226 75.3724C174.105 75.3414 174.166 74.8555 174.318 74.8555H177.918C178.039 74.8555 178.118 75.3414 177.994 75.3724C177.326 75.5724 176.749 75.6905 176.749 76.7725V82.6724C176.718 83.5666 176.779 84.4617 176.931 85.3434C176.992 85.5714 176.749 85.6315 176.506 85.6315C176.397 85.6318 176.29 85.6063 176.193 85.5571C176.096 85.5079 176.012 85.4364 175.948 85.3484Z" fill="white"/>
<path d="M181.037 84.9694C181.812 84.8624 182.297 84.5584 182.297 83.6024V76.7424C182.297 75.7854 181.812 75.4814 181.037 75.3764C180.916 75.3604 181.007 74.8594 181.129 74.8594H185.287C185.409 74.8594 185.5 75.3594 185.379 75.3764C184.726 75.4664 184.119 75.6764 184.119 76.7424V83.6024C184.119 84.6654 184.726 84.8774 185.379 84.9694C185.5 84.9844 185.409 85.4854 185.287 85.4854H181.129C181.006 85.4854 180.915 84.9844 181.037 84.9694Z" fill="white"/>
<path d="M188.583 80.3696C188.546 79.5952 188.673 78.8216 188.955 78.0997C189.238 77.3777 189.67 76.7236 190.223 76.1804C190.776 75.6371 191.438 75.217 192.165 74.9475C192.892 74.6779 193.668 74.5652 194.441 74.6166C196.202 74.6166 197.72 75.1636 197.541 75.6946L197.341 76.2866C196.794 77.9106 196.202 75.8315 193.501 75.8315C191.33 75.8315 190.268 77.2426 190.268 79.4316C190.235 80.062 190.332 80.6925 190.553 81.2839C190.774 81.8753 191.114 82.4148 191.552 82.869C191.991 83.3232 192.518 83.6823 193.101 83.924C193.685 84.1656 194.311 84.2846 194.942 84.2736C195.797 84.2053 196.629 83.9627 197.386 83.5605C197.508 83.4836 197.826 83.8335 197.735 83.9695C196.894 84.8739 195.79 85.4901 194.578 85.7306C192.028 85.7276 188.583 84.2406 188.583 80.3696Z" fill="white"/>
<path d="M211.598 85.4858H207.59C207.39 85.4858 207.378 84.9997 207.545 84.9697C208.107 84.8627 208.714 84.6697 208.152 83.3597L207.985 82.9808C207.833 82.6158 207.575 82.5807 207.12 82.5807H204.02C203.564 82.5807 203.306 82.6108 203.155 82.9808L203.003 83.3597C202.471 84.6657 203.048 84.8597 203.777 84.9697C203.977 84.9997 203.929 85.4858 203.731 85.4858H200.457C200.275 85.4858 200.229 84.9997 200.411 84.9697C201.033 84.8627 201.398 84.6507 201.96 83.3597L204.525 77.4708C204.957 76.6887 205.22 75.8253 205.299 74.9357C205.642 74.7619 206.024 74.6835 206.407 74.7087L210.107 83.3447C210.654 84.6357 211.018 84.8777 211.625 84.9697C211.837 84.9997 211.78 85.4858 211.598 85.4858ZM207.363 81.4927L205.587 77.2427L203.796 81.4927C203.705 81.7057 203.933 81.7358 204.145 81.7358H207.014C207.226 81.7358 207.454 81.7067 207.363 81.4927Z" fill="white"/>
<path d="M223.959 85.3484L216.734 77.7885V83.5574C216.734 84.5884 217.341 84.7574 218.206 84.9694C218.328 84.9994 218.267 85.4855 218.115 85.4855H214.515C214.394 85.4855 214.303 85.0144 214.439 84.9694C215.076 84.7564 215.684 84.6354 215.684 83.5574V77.6674C215.76 76.9144 215.56 76.1593 215.122 75.5424C214.986 75.3604 214.849 75.2424 214.849 75.1934C214.845 75.1094 214.874 75.0273 214.93 74.9647C214.986 74.9022 215.065 74.8643 215.149 74.8594H216.272C216.339 74.8505 216.408 74.8584 216.471 74.8823C216.535 74.9062 216.591 74.9454 216.636 74.9965L223.709 82.4794V76.7725C223.709 75.6945 223.026 75.5724 222.237 75.3724C222.115 75.3414 222.176 74.8555 222.328 74.8555H225.928C226.05 74.8555 226.128 75.3414 226.004 75.3724C225.336 75.5724 224.76 75.6905 224.76 76.7725V82.6724C224.729 83.5666 224.79 84.4617 224.942 85.3434C225.002 85.5714 224.76 85.6315 224.517 85.6315C224.408 85.6315 224.301 85.6059 224.204 85.5567C224.107 85.5075 224.023 85.4362 223.959 85.3484Z" fill="white"/>
<path d="M239.627 85.4858H235.62C235.42 85.4858 235.407 84.9997 235.574 84.9697C236.136 84.8627 236.743 84.6697 236.181 83.3597L236.014 82.9808C235.862 82.6158 235.604 82.5807 235.149 82.5807H232.049C231.593 82.5807 231.335 82.6108 231.184 82.9808L231.032 83.3597C230.501 84.6657 231.078 84.8597 231.806 84.9697C232.006 84.9997 231.958 85.4858 231.76 85.4858H228.482C228.3 85.4858 228.254 84.9997 228.436 84.9697C229.058 84.8627 229.423 84.6507 229.985 83.3597L232.55 77.4708C232.981 76.6887 233.245 75.8253 233.324 74.9357C233.666 74.7619 234.049 74.6835 234.432 74.7087L238.132 83.3447C238.679 84.6357 239.043 84.8777 239.65 84.9697C239.87 84.9997 239.809 85.4858 239.627 85.4858ZM235.392 81.4927L233.616 77.2427L231.825 81.4927C231.734 81.7057 231.962 81.7358 232.174 81.7358H235.043C235.255 81.7358 235.483 81.7067 235.392 81.4927Z" fill="white"/>
<path d="M0.738244 64.6265V64.6055C0.722718 64.0981 0.809237 63.5927 0.992639 63.1193C1.17604 62.6459 1.45259 62.2142 1.80593 61.8496C2.15928 61.4851 2.5822 61.1952 3.04965 60.9971C3.5171 60.7991 4.01957 60.6968 4.52725 60.6965C5.5597 60.6552 6.56772 61.017 7.33822 61.7055L6.78726 62.3526C6.16493 61.772 5.33791 61.4616 4.48727 61.4895C4.0937 61.4998 3.70613 61.5888 3.34744 61.7511C2.98875 61.9134 2.66617 62.1458 2.39865 62.4347C2.13113 62.7236 1.92406 63.063 1.7897 63.4331C1.65533 63.8031 1.59636 64.1963 1.61624 64.5896V64.6115C1.58516 65.0192 1.64004 65.4288 1.77725 65.8139C1.91446 66.199 2.13098 66.5511 2.41281 66.8472C2.69464 67.1434 3.03545 67.3771 3.41329 67.5332C3.79114 67.6893 4.19755 67.7644 4.60623 67.7536C5.39715 67.7506 6.16457 67.4842 6.78726 66.9965V65.1185H4.48727V64.3515H7.60726V67.3635C6.77168 68.1069 5.6926 68.5181 4.57424 68.5195C4.06059 68.5382 3.54868 68.4499 3.07101 68.2601C2.59334 68.0703 2.16034 67.7832 1.79959 67.4171C1.43883 67.051 1.15821 66.6139 0.975488 66.1334C0.792768 65.653 0.711968 65.1399 0.738244 64.6265Z" fill="white"/>
<path d="M10.2295 64.6261V64.6052C10.2281 64.0991 10.3263 63.5977 10.5187 63.1295C10.711 62.6614 10.9937 62.2357 11.3506 61.8768C11.7074 61.5179 12.1315 61.2328 12.5985 61.0378C13.0655 60.8428 13.5664 60.7417 14.0725 60.7403C14.5786 60.7388 15.0801 60.837 15.5482 61.0294C16.0163 61.2217 16.442 61.5044 16.8009 61.8613C17.1598 62.2181 17.4449 62.6422 17.6399 63.1092C17.8349 63.5762 17.936 64.0771 17.9375 64.5832C17.9485 64.5932 17.9485 64.5932 17.9375 64.6052C17.9403 65.6274 17.5369 66.6088 16.8161 67.3335C16.0953 68.0582 15.1162 68.467 14.094 68.4697C13.0719 68.4725 12.0905 68.069 11.3658 67.3482C10.641 66.6274 10.2323 65.6483 10.2295 64.6261ZM17.0525 64.6261V64.6052C17.0686 64.203 17.0036 63.8016 16.8613 63.4249C16.719 63.0483 16.5024 62.7042 16.2243 62.4131C15.9463 62.122 15.6125 61.8898 15.2428 61.7304C14.8731 61.571 14.4751 61.4876 14.0725 61.4852C13.6722 61.4863 13.2763 61.5683 12.9086 61.7263C12.5409 61.8843 12.2089 62.115 11.9326 62.4046C11.6563 62.6942 11.4414 63.0366 11.3008 63.4113C11.1602 63.7861 11.0968 64.1853 11.1145 64.5851V64.6073C11.0985 65.0094 11.1637 65.4107 11.306 65.7872C11.4483 66.1637 11.665 66.5077 11.943 66.7987C12.2211 67.0897 12.5549 67.3219 12.9245 67.4812C13.2941 67.6406 13.692 67.7237 14.0945 67.7261C14.4948 67.725 14.8907 67.6431 15.2584 67.4851C15.6261 67.3271 15.9581 67.0965 16.2344 66.8069C16.5107 66.5173 16.7256 66.1749 16.8662 65.8001C17.0068 65.4254 17.0702 65.026 17.0525 64.6261Z" fill="white"/>
<path d="M20.7715 60.8269H23.9885C24.7087 60.7852 25.4169 61.0251 25.9635 61.4959C26.121 61.655 26.2452 61.844 26.3287 62.0518C26.4122 62.2596 26.4532 62.482 26.4495 62.7059V62.7269C26.4566 63.1071 26.3448 63.4801 26.1297 63.7937C25.9145 64.1072 25.6068 64.3457 25.2495 64.4759C26.1495 64.7459 26.8685 65.2639 26.8685 66.2999V66.3219C26.8685 67.6219 25.7785 68.3839 24.1265 68.3839H20.7695L20.7715 60.8269ZM23.8475 64.1949C24.8735 64.1949 25.5865 63.7309 25.5865 62.8449V62.8249C25.5865 62.0789 24.9925 61.5929 23.9125 61.5929H21.6125V64.1929L23.8475 64.1949ZM24.1475 67.6179C25.2915 67.6179 26.0045 67.1089 26.0045 66.2679V66.2459C26.0045 65.4259 25.3135 64.9459 23.9955 64.9459H21.6105V67.6129L24.1475 67.6179Z" fill="white"/>
<path d="M29.6699 60.8262H30.5229V68.3832H29.6699V60.8262Z" fill="white"/>
<path d="M33.7647 60.8262H39.2267V61.6042H34.6177V64.1832H38.7387V64.9601H34.6147V67.6052H39.2777V68.3832H33.7617L33.7647 60.8262Z" fill="white"/>
<path d="M42.0273 60.8265H45.2773C46.065 60.7843 46.8373 61.0558 47.4254 61.5816C47.6158 61.7795 47.7654 62.0131 47.8654 62.2689C47.9655 62.5248 48.014 62.7979 48.0084 63.0725V63.0935C48.0068 63.6512 47.7946 64.1878 47.4143 64.5958C47.034 65.0037 46.5136 65.2529 45.9573 65.2935L48.2783 68.3815H47.2313L45.0394 65.4445H42.8804V68.3815H42.0273V60.8265ZM45.2014 64.6806C46.3354 64.6806 47.1443 64.0976 47.1443 63.1256V63.1055C47.1443 62.1775 46.4323 61.6155 45.2123 61.6155H42.8804V64.6815L45.2014 64.6806Z" fill="white"/>
<path d="M50.8623 60.8262H51.6623L56.4233 66.8821V60.8262H57.2543V68.3832H56.5743L51.6943 62.1832V68.3832H50.8633L50.8623 60.8262Z" fill="white"/>
<path d="M60.086 64.6261V64.6052C60.0845 64.0991 60.1827 63.5977 60.3751 63.1295C60.5674 62.6614 60.8501 62.2357 61.207 61.8768C61.5638 61.5179 61.9879 61.2328 62.4549 61.0378C62.9219 60.8428 63.4228 60.7417 63.9289 60.7403C64.435 60.7388 64.9365 60.837 65.4046 61.0294C65.8728 61.2217 66.2985 61.5044 66.6574 61.8613C67.0163 62.2181 67.3013 62.6422 67.4964 63.1092C67.6914 63.5762 67.7925 64.0771 67.794 64.5832C67.805 64.5932 67.805 64.5932 67.794 64.6052C67.7953 65.1114 67.697 65.6128 67.5046 66.0809C67.3122 66.549 67.0295 66.9747 66.6726 67.3335C66.3157 67.6924 65.8916 67.9774 65.4245 68.1724C64.9575 68.3673 64.4566 68.4684 63.9505 68.4697C63.4443 68.4711 62.9429 68.3727 62.4747 68.1803C62.0066 67.9879 61.581 67.7051 61.2222 67.3482C60.8633 66.9913 60.5783 66.5674 60.3833 66.1003C60.1884 65.6332 60.0873 65.1323 60.086 64.6261ZM66.909 64.6261V64.6052C66.9251 64.2031 66.8601 63.8017 66.7179 63.4252C66.5756 63.0486 66.3591 62.7046 66.0811 62.4135C65.8032 62.1224 65.4694 61.8901 65.0999 61.7307C64.7303 61.5712 64.3324 61.4877 63.9299 61.4852C63.5297 61.4863 63.1338 61.5683 62.7661 61.7263C62.3983 61.8843 62.0663 62.115 61.79 62.4046C61.5137 62.6942 61.2988 63.0366 61.1582 63.4113C61.0176 63.7861 60.9543 64.1853 60.9719 64.5851V64.6073C60.956 65.0094 61.0211 65.4106 61.1633 65.787C61.3056 66.1634 61.5222 66.5073 61.8001 66.7984C62.0781 67.0894 62.4117 67.3215 62.7812 67.4809C63.1507 67.6403 63.5485 67.7236 63.9509 67.7261C64.3512 67.725 64.7471 67.6431 65.1148 67.4851C65.4826 67.3271 65.8145 67.0965 66.0908 66.8069C66.3671 66.5173 66.582 66.1749 66.7226 65.8001C66.8632 65.4254 66.9266 65.026 66.909 64.6261Z" fill="white"/>
<path d="M74.8955 60.8266H77.5185C78.0329 60.7925 78.5488 60.8644 79.0343 61.0377C79.5198 61.2111 79.9645 61.4823 80.341 61.8345C80.7174 62.1867 81.0176 62.6123 81.2229 63.0852C81.4282 63.5581 81.5343 64.0681 81.5345 64.5836V64.6056C81.5348 65.1222 81.4293 65.6334 81.2244 66.1077C81.0196 66.5819 80.7199 67.0092 80.3436 67.3632C79.9673 67.7171 79.5225 67.9903 79.0366 68.1658C78.5508 68.3413 78.0341 68.4154 77.5185 68.3836H74.8955V60.8266ZM77.5185 67.5956C77.9232 67.6241 78.3295 67.5681 78.7114 67.4311C79.0933 67.2941 79.4425 67.0792 79.7369 66.8C80.0313 66.5208 80.2643 66.1833 80.4213 65.8091C80.5782 65.435 80.6556 65.0323 80.6485 64.6266V64.6056C80.6562 64.1988 80.5795 63.7947 80.4231 63.4191C80.2667 63.0434 80.0341 62.7043 79.7399 62.4232C79.4457 62.1421 79.0964 61.9251 78.714 61.7859C78.3316 61.6467 77.9246 61.5883 77.5185 61.6146H75.7475V67.5956H77.5185Z" fill="white"/>
<path d="M84.3672 60.8262H89.8302V61.6042H85.2202V64.1832H89.3442V64.9601H85.2202V67.6052H89.8842V68.3832H84.3672V60.8262Z" fill="white"/>
<path d="M96.8965 60.8262H97.7495V67.5952H102.004V68.3832H96.8965V60.8262Z" fill="white"/>
<path d="M107.405 60.7725H108.205L111.649 68.3835H110.731L109.847 66.3835H105.733L104.833 68.3835H103.959L107.405 60.7725ZM109.505 65.6194L107.789 61.7665L106.062 65.6194H109.505Z" fill="white"/>
<path d="M28.2369 9.21191H27.2329C27.0617 9.21191 26.9229 9.35071 26.9229 9.52191V14.8889C26.9229 15.0601 27.0617 15.1989 27.2329 15.1989H28.2369C28.4081 15.1989 28.5469 15.0601 28.5469 14.8889V9.52191C28.5469 9.35071 28.4081 9.21191 28.2369 9.21191Z" fill="white"/>
<path d="M30.8492 9.21191H29.8452C29.674 9.21191 29.5352 9.35071 29.5352 9.52191V14.8889C29.5352 15.0601 29.674 15.1989 29.8452 15.1989H30.8492C31.0204 15.1989 31.1592 15.0601 31.1592 14.8889V9.52191C31.1592 9.35071 31.0204 9.21191 30.8492 9.21191Z" fill="white"/>
<path d="M25.6099 9.21191H24.6059C24.4347 9.21191 24.2959 9.35071 24.2959 9.52191V14.8889C24.2959 15.0601 24.4347 15.1989 24.6059 15.1989H25.6099C25.7811 15.1989 25.9199 15.0601 25.9199 14.8889V9.52191C25.9199 9.35071 25.7811 9.21191 25.6099 9.21191Z" fill="white"/>
<path d="M32.8857 8.03418H22.5607C22.4657 8.03418 22.3887 8.11119 22.3887 8.20618V8.60218C22.3887 8.69717 22.4657 8.77418 22.5607 8.77418H32.8857C32.9807 8.77418 33.0577 8.69717 33.0577 8.60218V8.20618C33.0577 8.11119 32.9807 8.03418 32.8857 8.03418Z" fill="white"/>
<path d="M37.5715 18.3169C37.9085 18.5659 38.2945 18.8629 38.7205 19.2169C39.6256 19.977 40.4822 20.7929 41.2855 21.6599C43.3841 23.9369 45.1194 26.5236 46.4305 29.3289C47.0699 30.627 47.6185 31.9679 48.0724 33.3419C48.5624 34.7181 48.957 36.1265 49.2535 37.5569C49.7535 40.0469 50.0035 42.8389 50.0035 42.8389H53.8254L53.8185 42.7769L53.9675 42.8329V42.8059C53.7648 37.3022 51.9742 31.9747 48.8118 27.4657C45.6494 22.9567 41.2501 19.4589 36.1445 17.3939L36.1055 17.3779C36.3955 17.5352 36.6773 17.7074 36.9495 17.8939C37.1385 18.0169 37.3505 18.1639 37.5715 18.3169Z" fill="white"/>
<path d="M47.4233 42.7603C47.3983 42.4743 47.3564 42.1953 47.3234 41.9113C47.0601 38.6861 46.3239 35.5172 45.1384 32.5063C44.7615 31.5669 44.3273 30.6515 43.8383 29.7653C43.7003 29.5183 43.5553 29.2843 43.4133 29.0463C41.024 24.3168 37.1272 20.5182 32.3383 18.2503L32.3203 18.2393L32.3524 18.2812C33.2717 19.2076 34.0908 20.2283 34.7963 21.3263C37.8602 26.1567 39.726 31.6491 40.2383 37.3463C40.401 38.7507 40.4815 40.1634 40.4794 41.5773C40.4924 41.9533 40.5064 42.5663 40.5114 42.7773L40.4963 42.8542H41.2913L47.4003 42.8362V42.8312H47.4333L47.4233 42.7603Z" fill="white"/>
<path d="M31.7298 7.48999C31.7423 6.42585 31.3388 5.39886 30.6053 4.62781C29.8717 3.85676 28.8662 3.40259 27.8028 3.362V2.68698H28.8878V2.56998V2.16998C28.8875 2.16034 28.8835 2.15119 28.8766 2.14447C28.8696 2.13775 28.8604 2.134 28.8507 2.134H28.6898C28.6801 2.134 28.6709 2.13775 28.664 2.14447C28.6571 2.15119 28.653 2.16034 28.6527 2.16998V2.564H27.7998V1.01999H27.8228C27.835 1.01999 27.8467 1.01513 27.8553 1.0065C27.8639 0.997874 27.8687 0.986199 27.8687 0.973999V0.546997C27.8687 0.534703 27.864 0.522885 27.8554 0.514099C27.8468 0.505313 27.8351 0.500262 27.8228 0.5H27.6378C27.6317 0.499999 27.6255 0.501197 27.6199 0.503571C27.6143 0.505945 27.6092 0.509446 27.6049 0.513824C27.6006 0.518202 27.5973 0.523386 27.595 0.529083C27.5927 0.53478 27.5916 0.540873 27.5918 0.546997V0.973999C27.5916 0.980077 27.5927 0.986118 27.595 0.99176C27.5973 0.997403 27.6006 1.00251 27.6049 1.00681C27.6092 1.0111 27.6144 1.01449 27.62 1.01675C27.6257 1.01902 27.6317 1.02013 27.6378 1.01999H27.6648V2.564H26.8007V2.16998C26.8005 2.16034 26.7965 2.15119 26.7896 2.14447C26.7827 2.13775 26.7734 2.134 26.7638 2.134H26.6028C26.5979 2.13387 26.5931 2.13469 26.5887 2.13644C26.5842 2.13819 26.5801 2.14081 26.5766 2.14417C26.5732 2.14752 26.5704 2.15154 26.5686 2.15598C26.5667 2.16041 26.5658 2.16517 26.5658 2.16998V2.56998V2.68799H27.6657V3.36398C26.5998 3.40461 25.592 3.86072 24.8579 4.63477C24.1239 5.40881 23.7218 6.43934 23.7378 7.50598V7.52499H31.7278L31.7298 7.48999Z" fill="white"/>
<path d="M32.8857 15.8301H22.5607C22.4657 15.8301 22.3887 15.9071 22.3887 16.0021V16.3981C22.3887 16.4931 22.4657 16.5701 22.5607 16.5701H32.8857C32.9807 16.5701 33.0577 16.4931 33.0577 16.3981V16.0021C33.0577 15.9071 32.9807 15.8301 32.8857 15.8301Z" fill="white"/>
<path d="M29.1949 18.8176L29.085 18.7236V42.8336L37.929 42.8646C37.929 42.8646 37.929 42.6146 37.929 42.4896C37.929 32.2056 34.3869 23.2856 29.1949 18.8176Z" fill="white"/>
<path d="M49.813 46.5293H47.476C47.3048 46.5293 47.166 46.6681 47.166 46.8393V49.1743C47.166 49.3455 47.3048 49.4843 47.476 49.4843H49.813C49.9842 49.4843 50.123 49.3455 50.123 49.1743V46.8393C50.123 46.6681 49.9842 46.5293 49.813 46.5293Z" fill="white"/>
<path d="M17.4566 46.5264H15.1186C14.9474 46.5264 14.8086 46.6652 14.8086 46.8364V49.1744C14.8086 49.3456 14.9474 49.4844 15.1186 49.4844H17.4566C17.6278 49.4844 17.7666 49.3456 17.7666 49.1744V46.8364C17.7666 46.6652 17.6278 46.5264 17.4566 46.5264Z" fill="white"/>
<path d="M40.3657 46.5293H38.0288C37.8575 46.5293 37.7188 46.6681 37.7188 46.8393V49.1743C37.7188 49.3455 37.8575 49.4843 38.0288 49.4843H40.3657C40.5369 49.4843 40.6758 49.3455 40.6758 49.1743V46.8393C40.6758 46.6681 40.5369 46.5293 40.3657 46.5293Z" fill="white"/>
<path d="M28.9107 46.5264H26.5727C26.4015 46.5264 26.2627 46.6652 26.2627 46.8364V49.1744C26.2627 49.3456 26.4015 49.4844 26.5727 49.4844H28.9107C29.0819 49.4844 29.2207 49.3456 29.2207 49.1744V46.8364C29.2207 46.6652 29.0819 46.5264 28.9107 46.5264Z" fill="white"/>
<path d="M55.3259 44.8061H55.1919H50.1269V43.9261C50.1269 43.8574 50.0996 43.7915 50.051 43.7429C50.0024 43.6943 49.9366 43.6671 49.8679 43.6671H47.4299C47.3612 43.6671 47.2953 43.6943 47.2467 43.7429C47.1982 43.7915 47.1709 43.8574 47.1709 43.9261V44.8061H40.6809V43.9261C40.6809 43.892 40.6742 43.8582 40.6611 43.8267C40.648 43.7952 40.6288 43.7666 40.6046 43.7426C40.5805 43.7185 40.5518 43.6995 40.5203 43.6865C40.4887 43.6736 40.455 43.6669 40.4209 43.6671H37.9829C37.9142 43.6671 37.8483 43.6943 37.7998 43.7429C37.7512 43.7915 37.7239 43.8574 37.7239 43.9261V44.8061H29.2239V43.9211C29.2239 43.8524 29.1966 43.7865 29.148 43.7379C29.0995 43.6893 29.0336 43.6621 28.9649 43.6621H26.5259C26.4572 43.6621 26.3913 43.6893 26.3427 43.7379C26.2942 43.7865 26.2669 43.8524 26.2669 43.9211V44.8061H17.7669V43.9211C17.7669 43.8524 17.7396 43.7865 17.691 43.7379C17.6424 43.6893 17.5766 43.6621 17.5079 43.6621H15.0689C15.0002 43.6621 14.9343 43.6893 14.8858 43.7379C14.8372 43.7865 14.8099 43.8524 14.8099 43.9211V44.8061H8.31787V43.9211C8.31787 43.887 8.31112 43.8532 8.29804 43.8217C8.28496 43.7902 8.2658 43.7617 8.24164 43.7376C8.21748 43.7135 8.18883 43.6945 8.15729 43.6815C8.12575 43.6686 8.09196 43.662 8.05786 43.6621H5.61988C5.55109 43.6621 5.48507 43.6893 5.43634 43.7379C5.38761 43.7864 5.36013 43.8523 5.35987 43.9211V44.8061H0.317871H0.177857C0.155269 44.8061 0.132929 44.8105 0.112061 44.8192C0.0911925 44.8278 0.072185 44.8405 0.0562133 44.8564C0.0402417 44.8724 0.0275647 44.8914 0.0189209 44.9122C0.0102771 44.9331 0.00585938 44.9555 0.00585938 44.9781V45.4421C0.00585938 45.4877 0.0239571 45.5315 0.0562133 45.5637C0.0884696 45.596 0.132239 45.6141 0.177857 45.6141H55.3319C55.3776 45.6141 55.4215 45.596 55.4539 45.5638C55.4863 45.5316 55.5046 45.4878 55.5049 45.4421V44.9781C55.5048 44.9549 55.5 44.932 55.4909 44.9108C55.4817 44.8895 55.4684 44.8703 55.4517 44.8542C55.4351 44.8382 55.4153 44.8257 55.3937 44.8174C55.3721 44.8091 55.349 44.8053 55.3259 44.8061Z" fill="white"/>
<path d="M8.00737 46.5264H5.66938C5.49817 46.5264 5.35938 46.6652 5.35938 46.8364V49.1744C5.35938 49.3456 5.49817 49.4844 5.66938 49.4844H8.00737C8.17857 49.4844 8.31737 49.3456 8.31737 49.1744V46.8364C8.31737 46.6652 8.17857 46.5264 8.00737 46.5264Z" fill="white"/>
<path d="M26.4162 42.8475V18.7305L26.3062 18.8235C21.1142 23.2925 17.5732 32.2234 17.5732 42.5024C17.5732 42.6284 17.5732 42.8774 17.5732 42.8774L26.4162 42.8475Z" fill="white"/>
<path d="M1.67512 42.849H3.11012L4.4571 42.854V42.849H5.4961C5.4961 42.849 5.7481 40.056 6.2461 37.564C6.86718 34.7213 7.81413 31.9597 9.06812 29.334C10.3791 26.5281 12.1148 23.9411 14.2141 21.664C15.0167 20.7964 15.873 19.9801 16.7781 19.22C17.2031 18.869 17.5891 18.573 17.9261 18.32C18.1481 18.166 18.3621 18.02 18.5501 17.89C18.8223 17.7035 19.104 17.5313 19.3941 17.374L19.3551 17.39C14.2492 19.4575 9.85049 22.9577 6.68916 27.4688C3.52782 31.9799 1.73889 37.3092 1.53809 42.814V42.843H1.68012L1.67512 42.849Z" fill="white"/>
<path d="M20.7034 21.337C21.4082 20.2385 22.2271 19.2175 23.1464 18.291L23.1783 18.248L23.1613 18.2591C18.3713 20.5279 14.4738 24.328 12.0844 29.0591C11.9424 29.2971 11.7974 29.531 11.6594 29.778C11.1725 30.6646 10.74 31.58 10.3643 32.519C9.17607 35.5312 8.43784 38.7018 8.17334 41.929C8.14134 42.213 8.09936 42.493 8.07336 42.779L8.06836 42.8451H8.10034L14.0184 42.8631H15.0034L14.9883 42.7851C14.9933 42.5781 15.0073 41.9641 15.0203 41.5851C15.019 40.1709 15.0995 38.7579 15.2614 37.3531C15.7743 31.6573 17.6401 26.1663 20.7034 21.337Z" fill="white"/>
<path d="M55.188 50.1797H0.31C0.138792 50.1797 0 50.3185 0 50.4897V51.7867C0 51.9579 0.138792 52.0967 0.31 52.0967H55.188C55.3592 52.0967 55.498 51.9579 55.498 51.7867V50.4897C55.498 50.3185 55.3592 50.1797 55.188 50.1797Z" fill="white"/>
<path d="M55.2381 97.8164H0.0380859V94.8164H55.2381" fill="white"/>
</svg>
